<?xml version="1.0" standalone="no"?>
<!DOCTYPE svg PUBLIC "-//W3C//DTD SVG 20010904//EN"
 "http://www.w3.org/TR/2001/REC-SVG-20010904/DTD/svg10.dtd">
<svg version="1.0" xmlns="http://www.w3.org/2000/svg"
 width="692.000000pt" height="612.000000pt" viewBox="0 0 692.000000 612.000000"
 preserveAspectRatio="xMidYMid meet">

<g transform="translate(0.000000,612.000000) scale(0.100000,-0.100000)"
fill="#000000" stroke="none">
<path d="M4215 6105 c-5 -2 -44 -6 -85 -10 -42 -3 -82 -10 -90 -15 -12 -7 -8
-31 24 -137 236 -787 664 -1580 1193 -2207 303 -360 451 -575 613 -891 171
-336 295 -698 364 -1065 30 -157 56 -352 56 -416 0 -28 4 -44 12 -44 26 0 254
246 321 346 205 309 298 668 284 1099 -10 306 -66 600 -179 955 -111 347 -388
959 -567 1255 -414 682 -936 1053 -1583 1124 -90 10 -340 14 -363 6z"/>
<path d="M3773 5936 c-380 -365 -601 -833 -644 -1361 -11 -150 -7 -271 17
-454 15 -111 73 -363 92 -396 5 -10 74 -43 153 -75 458 -182 843 -435 1184
-775 357 -356 593 -732 755 -1202 42 -120 100 -343 120 -460 15 -84 12 -83
179 -83 166 0 405 45 501 95 l27 14 -18 123 c-68 449 -200 871 -400 1278 -156
320 -331 588 -575 881 -517 620 -898 1300 -1143 2035 -50 151 -131 436 -131
461 0 26 -21 12 -117 -81z"/>
<path d="M1470 3734 c-544 -69 -966 -306 -1276 -716 -40 -54 -78 -106 -83
-117 -9 -17 6 -26 167 -99 477 -216 904 -353 1437 -462 225 -46 755 -144 1190
-220 410 -72 650 -137 962 -261 401 -159 831 -416 1150 -686 34 -29 64 -53 67
-53 13 0 17 226 7 331 -34 338 -176 659 -432 976 -92 114 -328 346 -454 446
-591 470 -1323 777 -2055 861 -166 20 -530 20 -680 0z"/>
<path d="M41 2658 c-62 -304 -31 -612 88 -889 367 -851 1591 -1588 2901 -1745
196 -24 558 -24 729 0 621 85 1006 336 1226 798 24 51 41 96 39 100 -10 16
-350 236 -464 301 -452 255 -951 442 -1440 541 -206 41 -334 60 -565 81 -804
76 -1655 357 -2350 776 -77 46 -143 85 -147 87 -3 2 -11 -21 -17 -50z"/>
</g>
</svg>
